<svg xmlns="http://www.w3.org/2000/svg" contentScriptType="text/ecmascript" width="375" viewBox="0 0 375 375" height="375" version="1.0"><defs><clipPath id="a"><path d="M 40 8.09375 L 317 8.09375 L 317 327 L 40 327 Z M 40 8.09375"/></clipPath><clipPath id="b"><path d="M 114 99 L 346 99 L 346 366.59375 L 114 366.59375 Z M 114 99"/></clipPath><clipPath id="c"><path d="M 202.5 272.175781 L 297 272.175781 L 297 366.675781 L 202.5 366.675781 Z M 202.5 272.175781"/></clipPath></defs><g clip-path="url(#a)" fill="#003087"><path d="M 300.09375 35.132812 C 283.46875 16.207031 253.402344 8.09375 214.945312 8.09375 L 103.328125 8.09375 C 95.472656 8.09375 88.769531 13.800781 87.542969 21.554688 L 41.09375 315.777344 C 40.269531 320.992188 43.832031 325.890625 49.070312 326.710938 C 49.5625 326.785156 50.070312 326.832031 50.566406 326.832031 L 119.476562 326.832031 L 136.773438 217.265625 L 136.234375 220.699219 C 137.445312 212.960938 144.121094 207.257812 151.960938 207.242188 L 184.703125 207.242188 C 249.035156 207.242188 299.390625 181.160156 314.097656 105.710938 C 314.53125 103.484375 314.90625 101.304688 315.234375 99.183594 C 319.605469 71.296875 315.207031 52.324219 300.09375 35.132812 Z M 300.09375 35.132812"/><path d="M 300.09375 35.132812 C 283.46875 16.207031 253.402344 8.09375 214.945312 8.09375 L 103.328125 8.09375 C 95.472656 8.09375 88.769531 13.800781 87.542969 21.554688 L 41.09375 315.777344 C 40.269531 320.992188 43.832031 325.890625 49.070312 326.710938 C 49.5625 326.785156 50.070312 326.832031 50.566406 326.832031 L 119.476562 326.832031 L 136.773438 217.265625 L 136.234375 220.699219 C 137.445312 212.960938 144.121094 207.257812 151.960938 207.242188 L 184.703125 207.242188 C 249.035156 207.242188 299.390625 181.160156 314.097656 105.710938 C 314.53125 103.484375 314.90625 101.304688 315.234375 99.183594 C 319.605469 71.296875 315.207031 52.324219 300.09375 35.132812 Z M 300.09375 35.132812"/><path d="M 155.34375 99.558594 C 156.421875 92.777344 162.273438 87.785156 169.140625 87.785156 L 256.636719 87.785156 C 266.992188 87.785156 276.660156 88.457031 285.503906 89.863281 C 290.335938 90.640625 295.109375 91.699219 299.808594 93.058594 C 305.148438 94.554688 310.3125 96.613281 315.222656 99.183594 C 319.605469 71.296875 315.207031 52.324219 300.09375 35.117188 C 283.453125 16.207031 253.402344 8.09375 214.945312 8.09375 L 103.328125 8.09375 C 95.472656 8.09375 88.785156 13.800781 87.554688 21.554688 L 41.078125 315.761719 C 40.253906 320.976562 43.816406 325.875 49.039062 326.695312 C 49.53125 326.769531 50.042969 326.816406 50.535156 326.816406 L 119.445312 326.816406 L 136.742188 217.234375 Z M 155.34375 99.558594"/></g><g clip-path="url(#b)"><path fill="#009CDE" d="M 315.234375 99.183594 C 314.890625 101.363281 314.519531 103.546875 314.097656 105.710938 C 299.390625 181.144531 249.019531 207.242188 184.703125 207.242188 L 151.933594 207.242188 C 144.089844 207.242188 137.417969 212.960938 136.21875 220.699219 L 119.445312 326.832031 L 114.671875 356.929688 C 113.953125 361.5 117.066406 365.789062 121.644531 366.503906 C 122.078125 366.566406 122.527344 366.59375 122.960938 366.59375 L 181.050781 366.59375 C 187.921875 366.59375 193.773438 361.589844 194.847656 354.824219 L 195.417969 351.867188 L 206.371094 282.617188 L 207.058594 278.792969 C 208.136719 272.011719 213.988281 267.019531 220.871094 267.019531 L 229.566406 267.019531 C 285.832031 267.019531 329.886719 244.210938 342.769531 178.203125 C 348.128906 150.628906 345.359375 127.59375 331.144531 111.433594 C 326.625 106.414062 321.238281 102.261719 315.234375 99.183594 Z M 315.234375 99.183594"/></g><path fill="#012169" d="M 299.824219 93.058594 C 297.578125 92.402344 295.257812 91.804688 292.878906 91.28125 C 290.5 90.757812 288.03125 90.296875 285.503906 89.890625 C 276.660156 88.457031 267.007812 87.785156 256.636719 87.785156 L 169.140625 87.785156 C 162.257812 87.769531 156.40625 92.777344 155.34375 99.570312 L 136.742188 217.28125 L 136.203125 220.699219 C 137.402344 212.960938 144.074219 207.257812 151.917969 207.242188 L 184.671875 207.242188 C 249.003906 207.242188 299.359375 181.160156 314.070312 105.710938 C 314.503906 103.484375 314.875 101.320312 315.207031 99.183594 C 311.316406 97.152344 307.273438 95.449219 303.101562 94.089844 C 302.050781 93.714844 300.945312 93.386719 299.824219 93.058594 Z M 299.824219 93.058594"/><g clip-path="url(#c)"><path fill="#F9AB11" d="M 297.007812 319.433594 C 297.007812 345.527344 275.855469 366.683594 249.757812 366.683594 C 223.664062 366.683594 202.507812 345.527344 202.507812 319.433594 C 202.507812 293.335938 223.664062 272.183594 249.757812 272.183594 C 275.855469 272.183594 297.007812 293.335938 297.007812 319.433594"/></g><path fill="#FADF0D" d="M 291.753906 319.433594 C 291.753906 342.628906 272.953125 361.429688 249.757812 361.429688 C 226.566406 361.429688 207.765625 342.628906 207.765625 319.433594 C 207.765625 296.242188 226.566406 277.4375 249.757812 277.4375 C 272.953125 277.4375 291.753906 296.242188 291.753906 319.433594"/><path fill="#F9AB11" d="M 266.160156 329.578125 C 266.160156 326.066406 265.199219 323.097656 263.277344 320.679688 C 261.355469 318.257812 258.320312 316.207031 254.164062 314.527344 L 249.0625 312.4375 C 245.351562 310.910156 243.5 308.902344 243.5 306.402344 C 243.5 304.589844 244.203125 303.089844 245.617188 301.894531 C 247.03125 300.679688 248.808594 300.070312 250.953125 300.070312 C 252.695312 300.070312 254.121094 300.425781 255.226562 301.128906 C 256.285156 301.75 257.402344 303.074219 258.570312 305.109375 L 264.832031 301.394531 C 261.726562 296.027344 257.484375 293.183594 252.101562 292.847656 L 252.101562 285.707031 L 245.785156 285.707031 L 245.785156 293.554688 C 243.640625 294.191406 241.726562 295.238281 240.050781 296.722656 C 237.113281 299.304688 235.644531 302.515625 235.644531 306.355469 C 235.644531 312.050781 239.144531 316.378906 246.148438 319.335938 L 251.085938 321.390625 C 252.367188 321.9375 253.46875 322.515625 254.398438 323.128906 C 255.324219 323.730469 256.082031 324.382812 256.667969 325.078125 C 257.25 325.773438 257.683594 326.535156 257.960938 327.363281 C 258.234375 328.191406 258.375 329.101562 258.375 330.097656 C 258.375 332.566406 257.578125 334.609375 255.988281 336.21875 C 254.398438 337.832031 252.398438 338.636719 249.992188 338.636719 C 246.941406 338.636719 244.625 337.535156 243.035156 335.324219 C 242.148438 334.175781 241.53125 332.097656 241.175781 329.097656 L 233.359375 330.816406 C 234.0625 335.589844 235.84375 339.292969 238.691406 341.929688 C 240.6875 343.75 243.054688 344.929688 245.785156 345.496094 L 245.785156 353.160156 L 252.101562 353.160156 L 252.101562 345.730469 C 255.734375 345.28125 258.855469 343.800781 261.457031 341.253906 C 264.589844 338.175781 266.160156 334.289062 266.160156 329.578125"/></svg>